<svg xmlns="http://www.w3.org/2000/svg" viewBox="0 0 100 100">
  <rect width="100" height="100" rx="18" fill="#fef3e0"/>
  <g>
    <path d="M20 62 Q10 38 28 24 Q50 8 72 24 Q90 38 80 62 Q78 84 50 86 Q22 84 20 62 Z" fill="#f3a6c4"/>
    <path d="M28 20 L24 10 L32 18 M40 14 L40 4 L44 14 M60 14 L60 4 L56 14 M72 20 L76 10 L68 18" stroke="#f3a6c4" stroke-width="3.5" stroke-linecap="round" fill="none"/>
  </g>
  <ellipse cx="38" cy="50" rx="7" ry="8" fill="#fffaed"/>
  <ellipse cx="62" cy="50" rx="7" ry="8" fill="#fffaed"/>
  <circle cx="39" cy="52" r="3" fill="#1a1410"/>
  <circle cx="63" cy="52" r="3" fill="#1a1410"/>
  <ellipse cx="50" cy="66" rx="4" ry="2.5" fill="#e4483b"/>
</svg>
